HIERARCHY
ROOT Hips
{
	OFFSET -3.958830 18.904000 13.208200
	CHANNELS 6 Xposition Yposition Zposition Zrotation Yrotation Xrotation 
	JOINT LHipJoint
	{
		OFFSET 0.000000 0.000000 0.000000
		CHANNELS 3 Zrotation Yrotation Xrotation
		JOINT LeftUpLeg
		{
			OFFSET 1.800000 -1.400000 0.085000
			CHANNELS 3 Zrotation Yrotation Xrotation
			JOINT LeftLeg
			{
				OFFSET 2.215000 -6.000000 0.000000
				CHANNELS 3 Zrotation Yrotation Xrotation
				JOINT LeftFoot
				{
					OFFSET 2.500000 -6.900000 0.000000
					CHANNELS 3 Zrotation Yrotation Xrotation
					JOINT LeftToeBase
					{
						OFFSET 0.200000 -0.500000 1.950000
						CHANNELS 3 Zrotation Yrotation Xrotation
						End Site
						{
							OFFSET 0.000000 0.000000 0.000000
						}
					}
				}
			}
		}
	}
	JOINT RHipJoint
	{
		OFFSET 0.000000 0.000000 0.000000
		CHANNELS 3 Zrotation Yrotation Xrotation
		JOINT RightUpLeg
		{
			OFFSET -1.800000 -1.400000 0.085000
			CHANNELS 3 Zrotation Yrotation Xrotation
			JOINT RightLeg
			{
				OFFSET -2.215000 -6.000000 0.000000
				CHANNELS 3 Zrotation Yrotation Xrotation
				JOINT RightFoot
				{
					OFFSET -2.500000 -6.900000 0.000000
					CHANNELS 3 Zrotation Yrotation Xrotation
					JOINT RightToeBase
					{
						OFFSET -0.200000 -0.500000 1.950000
						CHANNELS 3 Zrotation Yrotation Xrotation
						End Site
						{
							OFFSET 0.000000 0.000000 0.000000
						}
					}
				}
			}
		}
	}
	JOINT LowerBack
	{
		OFFSET 0.000000 0.000000 0.000000
		CHANNELS 3 Zrotation Yrotation Xrotation
		JOINT Spine
		{
			OFFSET -0.087000 1.940000 -0.288900
			CHANNELS 3 Zrotation Yrotation Xrotation
			JOINT Spine1
			{
				OFFSET 0.000000 1.950000 0.060000
				CHANNELS 3 Zrotation Yrotation Xrotation
				JOINT Neck
				{
					OFFSET 0.000000 0.000000 0.000000
					CHANNELS 3 Zrotation Yrotation Xrotation
					JOINT Neck1
					{
						OFFSET 0.000000 1.600000 0.340000
						CHANNELS 3 Zrotation Yrotation Xrotation
						JOINT Head
						{
							OFFSET 0.000000 1.667000 -0.240000
							CHANNELS 3 Zrotation Yrotation Xrotation
							End Site
							{
								OFFSET 0.000000 0.000000 0.000000
							}
						}
					}
				}
				JOINT LeftShoulder
				{
					OFFSET 0.000000 0.000000 0.000000
					CHANNELS 3 Zrotation Yrotation Xrotation
					JOINT LeftArm
					{
						OFFSET 2.700000 1.550000 -0.730000
						CHANNELS 3 Zrotation Yrotation Xrotation
						JOINT LeftForeArm
						{
							OFFSET 5.450000 0.000000 0.000000
							CHANNELS 3 Zrotation Yrotation Xrotation
							JOINT LeftHand
							{
								OFFSET 3.450000 0.000000 0.000000
								CHANNELS 3 Zrotation Yrotation Xrotation
								JOINT LeftHandIndex1
								{
									OFFSET 0.750000 0.000000 0.000000
									CHANNELS 3 Zrotation Yrotation Xrotation
									End Site
									{
										OFFSET 0.000000 0.000000 0.000000
									}
								}
							}
						}
					}
				}
				JOINT RightShoulder
				{
					OFFSET 0.000000 0.000000 0.000000
					CHANNELS 3 Zrotation Yrotation Xrotation
					JOINT RightArm
					{
						OFFSET -2.700000 1.550000 -0.730000
						CHANNELS 3 Zrotation Yrotation Xrotation
						JOINT RightForeArm
						{
							OFFSET -5.450000 0.000000 0.000000
							CHANNELS 3 Zrotation Yrotation Xrotation
							JOINT RightHand
							{
								OFFSET -3.450000 0.000000 0.000000
								CHANNELS 3 Zrotation Yrotation Xrotation
								JOINT RightHandIndex1
								{
									OFFSET -0.750000 0.000000 0.000000
									CHANNELS 3 Zrotation Yrotation Xrotation
									End Site
									{
										OFFSET 0.000000 0.000000 0.000000
									}
								}
							}
						}
					}
				}
			}
		}
	}
}
MOTION
Frames: 10
Frame Time: 0.016667
-1.179100 17.224970 -2.792520 15.799851 16.873615 -17.331771 -16.273087 10.992026 7.866744 -11.276866 -18.983051 -82.239719 17.065177 3.276444 61.879834 1.350214 9.724263 1.073105 0.089720 -0.372270 0.497380 17.712647 -9.248809 0.919660 -15.710940 2.526934 6.661097 1.418859 -6.149218 21.690580 -0.687576 -4.694665 2.641159 -0.642510 -0.428670 0.390720 -1.212132 -3.301451 -9.023687 -11.695662 19.803800 56.576398 3.622627 20.712979 -23.679703 2.394090 5.053108 -14.817995 15.144861 -14.349282 49.624318 -7.742870 -3.391540 -13.336640 -23.657916 4.001478 2.434490 -57.117181 27.170242 -18.916882 -32.875273 -7.188691 -2.270555 -3.144873 2.796625 0.705820 -0.450620 0.510380 -0.109650 14.963588 10.960860 10.154030 47.148822 -3.777908 -17.372748 -147.699650 16.739720 -90.480257 2.607965 -1.699511 0.243810 -0.365690 -0.133790 -0.140250 
-1.173260 17.308210 -2.805190 16.156547 16.449993 -18.066682 -16.243909 11.016715 7.810448 -9.426990 -17.857818 -81.942902 13.502772 5.713149 64.957337 1.497161 10.310743 0.891739 0.147290 -0.283820 0.513080 17.719811 -9.328462 0.933093 -15.886012 2.418201 7.236759 0.396403 -5.862633 21.317230 -0.719881 -4.672080 2.651746 -0.610560 -0.460070 0.390410 -1.281775 -3.230605 -9.031225 -11.810166 19.779838 57.057030 3.781677 20.268536 -21.943755 2.323003 4.672148 -15.099891 14.260134 -13.513236 50.901631 -5.978000 -3.725720 -13.797180 -23.422314 2.445094 2.978173 -57.645181 26.458015 -19.347541 -34.460568 -7.508984 -2.315881 -3.106054 2.863386 0.690220 -0.471970 0.538280 -0.088340 15.266404 12.199724 10.564474 46.816299 -3.663453 -17.379051 -147.958159 18.153376 -95.783974 2.625231 -1.692769 0.287850 -0.383280 -0.177660 -0.120120 
-1.164860 17.454490 -2.823740 16.771664 15.465902 -19.339068 -16.208600 11.100784 7.670458 -6.323575 -15.606222 -80.423331 8.529701 9.847376 69.359129 1.742435 11.436838 0.563975 0.230940 -0.174130 0.562230 17.719061 -9.425021 0.943585 -16.426643 2.306449 8.011843 -0.779486 -5.572769 20.864498 -0.778372 -4.661190 2.646066 -0.558950 -0.499670 0.394730 -1.352735 -3.200687 -9.024335 -12.231203 19.950356 57.560730 4.201597 19.783395 -18.823758 2.275533 4.170069 -15.489303 13.263681 -12.436660 52.991451 -3.578850 -4.126400 -15.749850 -22.972818 0.138491 3.703309 -58.593337 25.065325 -20.044886 -36.889674 -8.556400 -2.253322 -3.060687 2.927361 0.703130 -0.506010 0.587130 -0.067440 15.516364 14.134889 11.174018 46.537136 -2.865554 -17.450633 -147.936425 21.220826 -104.524813 2.651309 -1.642538 0.324000 -0.381330 -0.230010 -0.111090 
-1.147200 17.630660 -2.849940 16.744152 14.213532 -20.548423 -16.163647 11.161999 7.552647 -3.312882 -13.553288 -77.920292 4.363323 14.065357 73.777292 2.056734 12.728781 0.218543 0.310270 -0.066800 0.613370 17.728906 -9.531592 0.943123 -16.767225 2.125642 7.809658 -1.240611 -5.431272 20.931950 -0.817543 -4.624060 2.645300 -0.502280 -0.530450 0.390480 -1.458664 -3.093895 -9.050437 -11.733995 19.343047 58.007747 4.189316 19.071962 -15.428789 2.237942 3.458168 -15.871465 11.677841 -11.043918 55.011162 -1.398590 -4.380610 -17.407860 -22.448957 -2.236745 4.449155 -59.078860 23.843953 -20.752389 -39.800156 -9.974639 -2.095493 -3.013561 2.984182 0.711050 -0.534990 0.629100 -0.050270 15.655852 16.235682 11.789054 46.227516 -1.814169 -17.610473 -147.463924 25.801476 -114.002050 2.690637 -1.585305 0.351490 -0.365100 -0.277410 -0.102780 
-1.125030 17.810420 -2.877890 16.265772 12.688946 -21.211113 -16.122913 11.264092 7.438869 -0.939855 -11.964214 -74.544705 1.610591 17.603224 77.220980 2.323721 13.810397 -0.065581 0.372190 0.020310 0.655120 17.734205 -9.659213 0.892876 -16.832963 2.003765 6.072124 -1.401509 -5.290926 22.071757 -0.818747 -4.524806 2.660964 -0.452280 -0.563650 0.388750 -1.553895 -2.996477 -9.041341 -11.179881 18.649910 57.942203 4.342376 18.454855 -12.959674 2.141738 3.196613 -16.264597 10.854636 -10.191674 56.634329 -0.598440 -4.191930 -18.612180 -21.760997 -4.388681 5.350601 -59.602720 23.388865 -21.714133 -43.045027 -11.502139 -1.919293 -2.982539 3.026531 0.726170 -0.554040 0.665350 -0.046790 15.672243 17.720431 12.074514 46.410366 -1.513797 -18.598428 -146.327192 31.292911 -121.666808 2.716868 -1.538298 0.369520 -0.352460 -0.303880 -0.107030 
-1.104380 17.990550 -2.906930 15.314271 10.963247 -21.667714 -16.076100 11.525072 7.215266 0.479269 -10.406698 -69.674441 0.288762 19.928624 79.120683 2.496599 14.440810 -0.228296 0.444510 0.116280 0.713910 17.723390 -9.825093 0.854315 -16.226883 2.061218 3.127725 -1.547636 -5.055900 24.588931 -0.813392 -4.398150 2.677717 -0.399180 -0.606500 0.382710 -1.636607 -2.985767 -8.980744 -10.456610 17.696922 57.707598 4.660792 17.710117 -10.988695 2.102752 2.803579 -16.584636 9.681540 -9.347664 58.662525 -0.281120 -4.014310 -20.154810 -21.263279 -6.244582 6.183789 -60.153428 23.350456 -22.898492 -45.919170 -12.857716 -1.835292 -2.943028 3.051144 0.744980 -0.583810 0.710230 -0.042430 15.743604 19.065711 12.108910 46.272704 -0.908168 -19.522027 -144.764807 37.625423 -127.858240 2.746055 -1.503982 0.389810 -0.332940 -0.339400 -0.111950 
-1.075280 18.174540 -2.957470 13.729021 8.850964 -22.317565 -16.011041 11.854829 6.955373 2.053570 -8.550264 -64.331597 -2.029442 22.061836 78.444797 2.572387 14.690653 -0.308577 0.532030 0.229280 0.779390 17.719706 -9.976037 0.879934 -14.618352 2.827290 -0.865179 -1.966602 -4.610720 29.303831 -0.840092 -4.392273 2.637583 -0.338880 -0.659050 0.376550 -1.752625 -3.025199 -8.943939 -8.584000 15.942939 58.348058 4.364716 16.611871 -9.347786 2.316713 1.780415 -17.069047 7.103749 -7.716397 61.735477 0.197000 -3.901820 -22.084030 -21.574906 -8.487962 7.029704 -60.464659 23.650434 -24.340226 -48.646411 -14.273885 -1.880392 -2.882045 3.074208 0.770120 -0.630310 0.767080 -0.034780 16.170426 21.297429 12.200963 45.565519 0.182654 -20.650245 -141.572059 44.500069 -130.566250 2.781023 -1.458720 0.418420 -0.310560 -0.381260 -0.110800 
-1.034400 18.332250 -3.019950 11.548558 6.655867 -22.668155 -15.945763 12.089050 6.689402 4.171488 -6.701988 -59.355366 -4.262505 23.935821 77.317439 2.597139 14.852893 -0.381314 0.609650 0.321420 0.842050 17.746575 -9.940004 1.074357 -12.289016 4.737135 -5.846657 -1.766985 -4.395603 36.118300 -0.933486 -4.751252 2.469040 -0.285950 -0.709050 0.373720 -1.888089 -3.097302 -8.992054 -5.902014 13.483936 59.351799 3.749587 15.198640 -7.959760 2.632177 0.662221 -17.619578 4.104764 -5.748966 64.068403 0.129630 -3.576580 -24.233240 -21.265459 -10.595815 7.886745 -60.974909 24.079061 -25.928612 -52.219943 -15.024976 -2.238593 -2.836977 3.091725 0.804200 -0.672000 0.814350 -0.038340 15.655960 23.415574 12.189948 45.251197 1.720233 -21.688375 -136.075913 51.555713 -129.294056 2.824269 -1.349241 0.438180 -0.290120 -0.406710 -0.120190 
-0.982580 18.464790 -3.084190 8.845324 4.476110 -22.901727 -15.872988 12.279749 6.241945 6.305569 -4.657468 -53.838913 -5.343454 24.614530 75.425751 2.536568 14.660546 -0.367992 0.693510 0.423070 0.899090 17.803700 -9.639892 1.603424 -9.927027 8.027994 -11.439781 -0.077099 -5.077949 44.328555 -1.159680 -5.623616 2.134325 -0.229690 -0.753690 0.367350 -2.057116 -3.281811 -9.132504 -2.466100 10.236860 60.724380 2.681426 13.393148 -6.838736 3.140088 -1.094360 -18.477353 -0.381203 -3.047743 66.794049 0.407840 -3.750640 -26.400040 -21.172332 -12.717620 8.684637 -61.281304 24.902314 -27.658696 -56.094273 -15.158316 -3.029046 -2.779829 3.094488 0.840260 -0.723190 0.869050 -0.028760 15.021263 25.996141 12.347399 44.490446 3.479858 -22.296730 -126.420488 57.799339 -121.217111 2.952897 -0.961394 0.460880 -0.255230 -0.438780 -0.116030 
-0.908920 18.558680 -3.140920 5.135466 3.381940 -22.487545 -15.800455 12.357684 5.638972 7.808571 -3.277291 -48.599772 -5.035016 23.578801 72.908877 2.377057 14.060145 -0.245426 0.774530 0.523390 0.939260 17.897431 -9.043331 2.505407 -8.545308 12.318746 -17.956309 4.240659 -7.884101 52.487924 -1.516059 -7.023399 1.658738 -0.172260 -0.787540 0.360470 -2.265322 -3.588945 -9.361682 2.436826 5.489652 61.734808 0.920565 10.861933 -6.022414 4.053814 -2.896563 -19.039417 -5.189603 -0.169342 67.858448 0.008040 -4.001260 -27.970150 -21.520906 -14.388435 9.190907 -60.679242 25.575579 -28.720187 -59.752419 -14.076891 -4.413607 -2.732176 3.114657 0.854460 -0.761890 0.906980 -0.005000 13.942857 28.013000 12.044964 43.772184 5.540072 -23.401938 -111.779736 63.615743 -101.184518 3.104344 0.481059 0.485580 -0.227820 -0.475310 -0.102890 
